<svg width="174" height="169" viewBox="0 0 174 169" fill="none" xmlns="http://www.w3.org/2000/svg">
    <rect width="174" height="169" rx="23.5" fill="url(#paint0_linear_9_433)" />
    <g filter="url(#filter0_d_9_433)">
        <path
            d="M88.3252 66.6982L104.385 66.2539C106.882 66.2539 108.638 66.7194 109.653 67.6504C110.669 68.5391 111.177 69.6393 111.177 70.9512C111.177 72.263 110.605 73.4268 109.463 74.4424C108.32 75.458 106.585 75.9658 104.258 75.9658C101.973 75.9658 98.7777 75.86 94.6729 75.6484L88.3252 75.458V105.927C88.3252 112.232 88.7695 116.252 89.6582 117.987C90.5892 119.722 91.499 120.801 92.3877 121.225C93.3187 121.648 94.7152 121.859 96.5771 121.859C98.4391 121.859 100.195 121.119 101.846 119.638C103.496 118.114 104.702 117.12 105.464 116.654C106.268 116.146 107.284 115.893 108.511 115.893C109.78 115.893 110.838 116.379 111.685 117.353C112.573 118.326 113.018 119.468 113.018 120.78C113.018 123.531 111.283 126.091 107.812 128.461C104.385 130.788 100.767 131.952 96.958 131.952C90.3141 131.952 85.363 130.238 82.1045 126.811C78.8883 123.34 77.2803 118.791 77.2803 113.163V75.9023C75.7992 76.0293 74.1699 76.0928 72.3926 76.0928C70.6576 76.0928 69.2188 75.6273 68.0762 74.6963C66.9759 73.7653 66.4258 72.5592 66.4258 71.0781C66.4258 69.5547 66.9759 68.3698 68.0762 67.5234C69.2188 66.6771 70.5941 66.2539 72.2021 66.2539C73.8525 66.2539 75.5241 66.2962 77.2168 66.3809C77.1745 64.9844 77.1322 63.334 77.0898 61.4297L76.8359 55.8438C76.7936 53.9818 76.7301 52.3314 76.6455 50.8926C76.6032 49.4538 76.582 48.5016 76.582 48.0361C76.582 45.8779 77.1745 44.2699 78.3594 43.2119C79.5443 42.154 81.0254 41.625 82.8027 41.625C86.8652 41.625 88.8965 43.9736 88.8965 48.6709L88.3252 66.6982Z"
            fill="white" />
    </g>
    <defs>
        <filter id="filter0_d_9_433" x="63.3258" y="39.525" width="60.7918" height="104.527"
            filterUnits="userSpaceOnUse" color-interpolation-filters="sRGB">
            <feFlood flood-opacity="0" result="BackgroundImageFix" />
            <feColorMatrix in="SourceAlpha" type="matrix"
                values="0 0 0 0 0 0 0 0 0 0 0 0 0 0 0 0 0 0 127 0" result="hardAlpha" />
            <feOffset dx="4" dy="5" />
            <feGaussianBlur stdDeviation="3.55" />
            <feComposite in2="hardAlpha" operator="out" />
            <feColorMatrix type="matrix" values="0 0 0 0 0 0 0 0 0 0 0 0 0 0 0 0 0 0 0.25 0" />
            <feBlend mode="normal" in2="BackgroundImageFix" result="effect1_dropShadow_9_433" />
            <feBlend mode="normal" in="SourceGraphic" in2="effect1_dropShadow_9_433" result="shape" />
        </filter>
        <linearGradient id="paint0_linear_9_433" x1="87" y1="0" x2="87" y2="169"
            gradientUnits="userSpaceOnUse">
            <stop stop-color="#6677CC" />
            <stop offset="1" stop-color="#2929CC" />
        </linearGradient>
    </defs>
</svg>
    